<svg width="26" height="29" viewBox="0 0 26 29" fill="none" xmlns="http://www.w3.org/2000/svg">
<g filter="url(#filter0_d_246_4762)">
<path d="M12.5 9.05C13.417 8.113 14.611 7.5 16 7.5C17.4587 7.5 18.8576 8.07946 19.8891 9.11091C20.9205 10.1424 21.5 11.5413 21.5 13V20.5H19.5V13C19.5 12.0717 19.1313 11.1815 18.4749 10.5251C17.8185 9.86875 16.9283 9.5 16 9.5C15.0717 9.5 14.1815 9.86875 13.5251 10.5251C12.8687 11.1815 12.5 12.0717 12.5 13V20.5H10.5V8H12.5V9.05ZM5.5 6C5.10218 6 4.72064 5.84196 4.43934 5.56066C4.15804 5.27936 4 4.89782 4 4.5C4 4.10218 4.15804 3.72064 4.43934 3.43934C4.72064 3.15804 5.10218 3 5.5 3C5.89782 3 6.27936 3.15804 6.56066 3.43934C6.84196 3.72064 7 4.10218 7 4.5C7 4.89782 6.84196 5.27936 6.56066 5.56066C6.27936 5.84196 5.89782 6 5.5 6ZM4.5 8H6.5V20.5H4.5V8Z" fill="black"/>
</g>
<defs>
<filter id="filter0_d_246_4762" x="-3" y="0" width="32" height="32" filterUnits="userSpaceOnUse" color-interpolation-filters="sRGB">
<feFlood flood-opacity="0" result="BackgroundImageFix"/>
<feColorMatrix in="SourceAlpha" type="matrix" values="0 0 0 0 0 0 0 0 0 0 0 0 0 0 0 0 0 0 127 0" result="hardAlpha"/>
<feOffset dy="4"/>
<feGaussianBlur stdDeviation="2"/>
<feComposite in2="hardAlpha" operator="out"/>
<feColorMatrix type="matrix" values="0 0 0 0 0 0 0 0 0 0 0 0 0 0 0 0 0 0 0.25 0"/>
<feBlend mode="normal" in2="BackgroundImageFix" result="effect1_dropShadow_246_4762"/>
<feBlend mode="normal" in="SourceGraphic" in2="effect1_dropShadow_246_4762" result="shape"/>
</filter>
</defs>
</svg>
